<?xml version="1.0" encoding="utf-8"?>
<!-- Generator: Adobe Illustrator 18.0.0, SVG Export Plug-In . SVG Version: 6.00 Build 0)  -->
<!DOCTYPE svg PUBLIC "-//W3C//DTD SVG 1.1//EN" "http://www.w3.org/Graphics/SVG/1.1/DTD/svg11.dtd">
<svg version="1.1" id="Layer_1" xmlns="http://www.w3.org/2000/svg" xmlns:xlink="http://www.w3.org/1999/xlink" x="0px" y="0px"
	 viewBox="150.9 76.1 349.2 349.8" enable-background="new 150.9 76.1 349.2 349.8" xml:space="preserve">
<g id="Google__x2B_" transform="translate(157.000000, 0.500000)">
	<path fill="#D34836" d="M-6.1,250c0-96.5,78.5-174.3,174.3-174.3S342.6,153.5,342.6,250s-78.5,174.3-174.3,174.3
		S-6.1,346.4-6.1,250z"/>
	<path id="Shape_24_" fill="#FFFFFF" d="M337.3,209.9h-41.3v45.9h-19.2v-45.9h-45.3v-19.2h45.3v-45.3h19.2v45.3h34.9
		C333.3,197.1,335.6,203.5,337.3,209.9z"/>
	<path id="Path_6_" fill="#FFFFFF" d="M41.5,362.7c4.6-8.1,12.2-16.3,23.8-22.7c25.6-15.7,59.3-17.4,77.9-18.6
		c-5.8-7.6-12.2-15.1-12.2-27.9c0-7,2.3-11,4.1-15.7c-4.6,0.6-8.7,1.2-12.8,1.2c-43,0-67.4-32-67.4-63.9c0-18.6,8.7-39.5,26.2-54.6
		c23.2-19.2,51.1-22.1,72.6-22.1h83.7l-26.2,14.5h-25c9.3,7.6,29.1,23.8,29.1,54.6c0,30.2-16.9,44.2-34.3,57.5
		c-5.2,5.2-11.6,11-11.6,19.8s5.8,13.9,10.5,17.4l14.5,11.6c18,15.1,34.3,29.1,34.3,56.9c0,18.6-8.7,37.2-25.6,51.1
		c-9.3,1.7-18.6,2.3-27.9,2.3c16.9-7.6,26.2-20.9,26.2-37.8c0-20.9-13.4-32-44.2-53.5c-3.5-0.6-5.2-0.6-9.3-0.6
		c-3.5,0-25.6,0.6-42.4,6.4c-8.7,3.5-34.9,12.8-34.9,41.8c0,2.9,0.6,6.4,1.2,9.3C28.2,358,46.8,362.7,41.5,362.7z M178.7,226.1
		c0-29.6-17.4-75-51.1-75c-10.5,0-22.1,5.2-28.5,13.4c-7,8.7-8.7,19.8-8.7,30.2c0,27.3,15.7,72.6,51.1,72.6
		c9.9,0,20.9-5.2,27.9-11.6C178.1,246.5,178.7,233.1,178.7,226.1z"/>
	<path id="reflec_20_" fill-opacity="8.000000e-02" d="M343.1,251.1c0,96.5-78.5,174.3-174.3,174.3c-36,0-69.2-10.5-96.5-29.1
		l199.9-285.9C315.3,142.5,343.1,193,343.1,251.1z"/>
</g>
</svg>
