<?xml version="1.0" encoding="utf-8"?>
<!-- Generator: Adobe Illustrator 18.0.0, SVG Export Plug-In . SVG Version: 6.00 Build 0)  -->
<!DOCTYPE svg PUBLIC "-//W3C//DTD SVG 1.1//EN" "http://www.w3.org/Graphics/SVG/1.1/DTD/svg11.dtd">
<svg version="1.1" id="Layer_1" xmlns="http://www.w3.org/2000/svg" xmlns:xlink="http://www.w3.org/1999/xlink" x="0px" y="0px"
	 viewBox="0 0 213 180" enable-background="new 0 0 213 180" xml:space="preserve">
<g>
	<path d="M52.1,144.6v4.1h-21h-5.6h-6.9V31.5h12.5v113H52.1z"/>
	<path d="M73.2,104v39.6c0,1-0.9,2.1-2.1,2.5l-3.7,1l-2.1,0.4l-2.8,0.7l-2.1,0.4v-45.6L45.5,31.7h12.6l13,62l13.6-62h4.1l-15.7,71.5
		v0.1V104z"/>
	<path d="M144.3,31.5v105v0.6v6.6l-0.1,1.5c-0.4,1-1.2,1.5-1.9,1.6l-3.7,1l-2.1,0.4l-1.8,0.4h-0.3L106.2,47.1
		c-0.7-2.5-1.5-4.1-2.5-4.7v106.3h-4.1V35.2v-3.5v-0.1h4.1c4.7,0,11.3,0.1,14.1,10.1l22.4,79.9v-90H144.3z"/>
	<path d="M195.6,35.8H181v107.8c0,1-0.9,2.1-2.1,2.5l-3.7,1l-2.1,0.4l-2.6,0.7h-0.1l-1.9,0.4V35.8h-14.7v-4.3h41.8V35.8z"/>
</g>
<polygon points="147.7,20 68.3,20 86.6,15.5 161.9,11.4 "/>
<polygon points="62.2,160 141.6,160 123.3,164.5 47.9,168.6 "/>
</svg>
