<?xml version="1.0" encoding="utf-8"?>
<!-- Generator: Adobe Illustrator 18.0.0, SVG Export Plug-In . SVG Version: 6.00 Build 0)  -->
<!DOCTYPE svg PUBLIC "-//W3C//DTD SVG 1.1//EN" "http://www.w3.org/Graphics/SVG/1.1/DTD/svg11.dtd">
<svg version="1.1" id="Layer_1" xmlns="http://www.w3.org/2000/svg" xmlns:xlink="http://www.w3.org/1999/xlink" x="0px" y="0px"
	 viewBox="166.6 107.9 323.6 323.6" enable-background="new 166.6 107.9 323.6 323.6" xml:space="preserve">
<g id="Tumblr" transform="translate(553.000000, 1.000000)">
	<path fill="#4E83B7" d="M-386.4,268.7c0-89.5,72.8-161.8,161.8-161.8s161.8,72.3,161.8,161.8s-72.8,161.8-161.8,161.8
		S-386.4,358.2-386.4,268.7z"/>
	<path id="Path_15_" fill="#FFFFFF" d="M-274.3,257.3h15.1v45.3c1.1,36.7,21.6,44.8,45.3,46.9c14-0.5,30.7-5.9,39.4-12.4v-25.3
		c-10.8,10.8-40.4,21-45.8-9.2l-0.5-45.8l46.4,0.5v-30.7h-46.4l1.1-38.8l-18.3,0.5c1.1,32.9-16.2,37.2-35.6,38.8v30.2H-274.3z"/>
	<path id="reflec_25_" fill-opacity="8.000000e-02" d="M-62.8,268.7c0,89.5-72.8,161.8-161.8,161.8c-33.4,0-64.2-9.7-89.5-27
		l185.5-265.3C-88.7,167.8-62.8,215.3-62.8,268.7z"/>
</g>
</svg>
